<svg xmlns="http://www.w3.org/2000/svg" width="291" height="85" viewBox="0 0 291 85" role="img" aria-labelledby="title desc">
  <title id="title">Logo Estapar</title>
  <desc id="desc">Logo vetorizada a partir da imagem enviada, com fundo transparente.</desc>
  <defs>
    <linearGradient id="estaparGreen" x1="18" y1="12" x2="82" y2="76" gradientUnits="userSpaceOnUse">
      <stop offset="0" stop-color="#8ED25B"/>
      <stop offset="0.55" stop-color="#96DA9E"/>
      <stop offset="1" stop-color="#98DDBD"/>
    </linearGradient>
  </defs>
  <g fill-rule="evenodd" clip-rule="evenodd">
    <path fill="url(#estaparGreen)" d="M81.00,10.75 L41.25,10.75 L41.00,11.00 L52.00,11.25 L40.25,11.75 L37.25,13.00 L34.50,15.75 L32.75,18.75 L32.25,22.25 L32.50,40.00 L32.00,40.75 L26.25,41.00 L22.25,42.75 L19.75,45.25 L17.75,49.25 L17.75,76.75 L30.25,77.00 L34.50,75.25 L38.00,71.25 L39.25,67.75 L39.25,48.00 L39.75,47.50 L72.00,47.50 L72.25,48.00 L75.00,48.00 L74.25,47.50 L77.00,46.25 L79.25,44.25 L81.00,41.75 L81.25,40.25 L82.00,39.25 L82.25,36.75 L82.25,12.75 L81.75,11.75 L80.50,11.25 L81.25,11.00 Z
    M32.00,47.50 L32.25,66.75 L31.50,68.50 L30.00,69.75 L24.75,70.00 L24.50,51.25 L25.00,50.00 L26.50,48.25 L28.75,47.50 Z
    M40.25,19.50 L41.00,20.00 L40.25,19.50 L42.00,18.50 L74.50,18.50 L75.00,19.00 L74.50,39.00 L73.50,40.25 L73.25,39.75 L72.50,39.75 L72.50,40.75 L39.75,40.75 L39.50,40.50 L40.25,40.00 L40.00,39.50 L39.75,40.25 L39.25,40.25 L39.25,22.00 Z"/>
    <path fill="#333333" d="M96.75,34.75 L96.25,35.50 L96.25,47.50 L96.50,49.25 L97.25,50.50 L99.00,52.25 L99.75,52.25 L101.50,53.25 L113.50,53.25 L114.25,51.75 L114.25,49.25 L113.75,48.00 L113.25,47.75 L105.25,47.75 L105.00,47.50 L103.75,47.75 L102.50,47.25 L103.00,46.25 L103.50,46.50 L112.75,46.50 L113.25,46.00 L113.25,41.75 L113.00,41.50 L102.75,41.50 L102.25,40.50 L102.50,40.25 L113.00,40.25 L113.75,40.00 L114.25,38.75 L114.00,35.00 L113.75,34.75 Z
    M122.50,37.00 L122.50,37.75 L121.50,39.25 L121.50,41.50 L122.50,42.75 L122.50,43.50 L123.50,44.50 L124.75,45.25 L126.50,45.25 L127.75,46.25 L129.75,46.25 L130.75,47.00 L132.00,47.25 L134.00,47.00 L134.50,47.50 L134.25,48.00 L133.00,48.50 L126.75,48.50 L125.00,47.50 L122.50,47.25 L122.25,47.50 L122.25,52.00 L122.75,52.50 L125.00,53.25 L127.25,53.50 L134.25,53.50 L137.50,52.25 L139.25,51.00 L140.25,49.50 L140.25,45.50 L138.00,42.75 L136.00,42.50 L134.75,41.50 L133.00,41.50 L130.00,40.50 L129.25,40.75 L127.50,40.25 L127.75,39.75 L128.75,39.25 L131.75,39.25 L135.25,40.25 L138.50,40.25 L139.00,39.75 L139.00,36.00 L138.50,35.25 L135.75,34.50 L127.00,34.50 L125.00,35.25 Z
    M145.75,35.00 L145.50,38.75 L146.00,40.00 L146.50,40.25 L151.50,40.25 L151.75,40.00 L153.00,40.75 L152.50,41.75 L152.75,42.00 L152.75,52.50 L153.00,53.00 L153.50,53.25 L158.50,53.25 L159.25,51.75 L159.25,41.50 L159.00,40.50 L159.50,40.00 L160.25,40.25 L165.75,40.00 L166.25,38.75 L166.00,35.25 L165.25,34.75 L146.25,34.75 Z
    M177.00,34.75 L176.50,35.25 L176.50,36.00 L175.50,37.00 L175.50,37.75 L174.50,39.75 L173.75,40.50 L172.50,43.50 L171.75,44.25 L170.25,47.75 L169.50,48.50 L169.25,49.50 L167.75,51.75 L167.75,53.00 L168.25,53.25 L173.75,53.25 L175.25,51.00 L176.25,48.75 L176.25,48.00 L177.25,46.75 L177.50,45.50 L178.25,44.50 L178.50,43.25 L179.25,42.50 L181.25,45.50 L181.75,47.50 L182.50,48.25 L182.75,49.50 L183.50,50.00 L183.75,51.75 L185.00,53.25 L190.50,53.25 L191.00,52.25 L190.50,51.75 L190.25,50.25 L188.25,47.50 L188.25,46.50 L187.50,45.00 L186.25,43.75 L186.25,43.00 L185.25,41.75 L185.25,41.00 L184.25,40.00 L184.25,39.00 L183.25,38.00 L183.25,37.00 L182.25,36.25 L181.75,34.75 Z
    M197.50,35.00 L197.50,52.75 L198.00,53.25 L203.00,53.25 L203.50,52.25 L203.50,49.25 L204.00,48.75 L204.25,49.00 L209.75,49.00 L211.00,48.25 L212.25,48.00 L213.00,47.25 L214.25,47.00 L215.25,45.25 L216.00,44.75 L216.50,42.25 L216.25,39.25 L214.75,37.25 L212.50,35.50 L211.00,34.75 L209.00,34.50 L198.25,34.50 Z
    M203.25,40.50 L203.75,40.00 L204.25,40.25 L209.25,40.25 L210.25,41.50 L210.25,42.25 L208.75,43.50 L208.25,43.25 L203.75,43.75 L203.25,43.25 L203.50,42.25 Z
    M204.50,41.50 L204.50,42.25 L208.25,42.00 L208.25,41.75 Z
    M228.75,35.00 L228.50,36.25 L227.75,37.00 L227.50,38.25 L226.50,39.50 L226.50,40.25 L224.50,43.00 L224.50,44.00 L223.75,44.75 L223.50,45.75 L222.50,47.00 L222.50,47.75 L220.00,51.50 L220.00,52.75 L220.50,53.25 L225.75,53.25 L227.00,51.75 L227.25,50.50 L228.25,49.25 L228.50,47.75 L231.25,43.50 L231.00,43.00 L231.50,42.25 L232.25,43.00 L232.50,44.75 L233.50,46.00 L234.50,48.00 L234.50,49.00 L235.50,50.25 L237.00,53.25 L242.75,53.25 L243.00,51.50 L242.00,49.50 L241.25,48.75 L241.00,47.50 L240.25,46.75 L240.00,45.75 L239.25,45.00 L239.00,43.75 L237.25,41.50 L237.00,40.00 L235.25,37.50 L235.25,36.75 L234.25,35.00 L233.75,34.75 Z
    M249.75,34.75 L249.50,35.50 L249.50,52.50 L250.00,53.25 L255.00,53.25 L255.50,52.50 L255.50,49.00 L256.00,48.50 L256.25,48.75 L260.00,48.75 L261.75,51.50 L262.50,52.00 L262.75,53.00 L263.25,53.25 L269.00,53.25 L269.25,53.00 L269.00,51.00 L266.25,47.75 L268.25,45.25 L269.25,42.50 L268.75,39.25 L267.00,36.75 L263.00,34.75 Z
    M255.25,40.50 L255.75,40.00 L256.25,40.25 L262.00,40.25 L262.50,40.75 L262.75,42.25 L262.00,43.50 L261.25,43.25 L255.75,43.50 L255.25,43.00 L255.50,42.25 Z"/>
  </g>
</svg>
